<svg width="1881" height="646" viewBox="0 0 1881 646" fill="none" xmlns="http://www.w3.org/2000/svg">
<path d="M1457.59 641.049H420.741C370.528 641.049 329.819 600.346 329.819 550.132V550.127C329.819 499.913 370.528 459.205 420.741 459.205H1457.59C1507.81 459.205 1548.51 499.913 1548.51 550.127V550.132C1548.51 600.346 1507.81 641.049 1457.59 641.049Z" fill="white"/>
<path d="M1457.59 641.049H420.741C370.528 641.049 329.819 600.346 329.819 550.132V550.127C329.819 499.913 370.528 459.205 420.741 459.205H1457.59C1507.81 459.205 1548.51 499.913 1548.51 550.127V550.132C1548.51 600.346 1507.81 641.049 1457.59 641.049Z" stroke="#1E1E1E" stroke-width="6.66667" stroke-miterlimit="10"/>
<path d="M13.3246 396.237H46.1944C57.9131 396.237 67.4079 405.737 67.4079 417.451V534.982C67.4079 593.565 114.897 641.049 173.476 641.049H239.939C244.627 641.049 248.424 637.253 248.424 632.565V513.555C248.424 508.867 244.627 505.065 239.939 505.065H193.194C181.476 505.065 171.981 495.57 171.981 483.852V162.034C171.981 150.32 181.476 140.82 193.194 140.82H239.939C244.627 140.82 248.424 137.018 248.424 132.336V13.3203C248.424 8.63281 244.627 4.83594 239.939 4.83594H173.476C114.897 4.83594 67.4079 52.3255 67.4079 110.904V233.737C67.4079 245.451 57.9131 254.951 46.1944 254.951H13.3246C8.63708 254.951 4.835 258.753 4.835 263.435V387.753C4.835 392.44 8.63708 396.237 13.3246 396.237Z" fill="#F9AB00"/>
<path d="M13.3246 396.237H46.1944C57.9131 396.237 67.4079 405.737 67.4079 417.451V534.982C67.4079 593.565 114.898 641.049 173.476 641.049H239.939C244.627 641.049 248.424 637.253 248.424 632.565V513.555C248.424 508.867 244.627 505.065 239.939 505.065H193.194C181.476 505.065 171.981 495.57 171.981 483.852V162.034C171.981 150.32 181.476 140.82 193.194 140.82H239.939C244.627 140.82 248.424 137.018 248.424 132.336V13.3203C248.424 8.63281 244.627 4.83594 239.939 4.83594H173.476C114.898 4.83594 67.4079 52.3255 67.4079 110.904V233.737C67.4079 245.451 57.9131 254.951 46.1944 254.951H13.3246C8.63708 254.951 4.835 258.753 4.835 263.435V387.753C4.835 392.44 8.63708 396.237 13.3246 396.237Z" stroke="#1E1E1E" stroke-width="9.67" stroke-miterlimit="10"/>
<path d="M1866.96 396.237H1834.09C1822.37 396.237 1812.88 405.737 1812.88 417.451V534.982C1812.88 593.565 1765.39 641.049 1706.8 641.049H1640.35C1635.66 641.049 1631.86 637.253 1631.86 632.565V513.555C1631.86 508.867 1635.66 505.065 1640.35 505.065H1687.09C1698.8 505.065 1708.3 495.57 1708.3 483.852V162.034C1708.3 150.32 1698.8 140.82 1687.09 140.82H1640.35C1635.66 140.82 1631.86 137.018 1631.86 132.336V13.3203C1631.86 8.63281 1635.66 4.83594 1640.35 4.83594H1706.8C1765.39 4.83594 1812.88 52.3255 1812.88 110.904V233.737C1812.88 245.451 1822.37 254.951 1834.09 254.951H1866.96C1871.65 254.951 1875.44 258.753 1875.44 263.435V387.753C1875.44 392.44 1871.65 396.237 1866.96 396.237Z" fill="#F9AB00"/>
<path d="M1866.96 396.237H1834.09C1822.37 396.237 1812.88 405.737 1812.88 417.451V534.982C1812.88 593.565 1765.39 641.049 1706.8 641.049H1640.35C1635.66 641.049 1631.86 637.253 1631.86 632.565V513.555C1631.86 508.867 1635.66 505.065 1640.35 505.065H1687.09C1698.8 505.065 1708.3 495.57 1708.3 483.852V162.034C1708.3 150.32 1698.8 140.82 1687.09 140.82H1640.35C1635.66 140.82 1631.86 137.018 1631.86 132.336V13.3203C1631.86 8.63281 1635.66 4.83594 1640.35 4.83594H1706.8C1765.39 4.83594 1812.88 52.3255 1812.88 110.904V233.737C1812.88 245.451 1822.37 254.951 1834.09 254.951H1866.96C1871.65 254.951 1875.44 258.753 1875.44 263.435V387.753C1875.44 392.44 1871.65 396.237 1866.96 396.237Z" stroke="#1E1E1E" stroke-width="9.67" stroke-miterlimit="10"/>
<path d="M500.022 292.799C494.413 303.799 486.007 312.31 474.799 318.341C463.585 324.367 449.621 327.383 432.918 327.383H400.871V181.43H432.918C449.621 181.43 463.585 184.445 474.799 190.477C486.007 196.503 494.413 204.966 500.022 215.857C505.627 226.753 508.429 239.602 508.429 254.409C508.429 269.003 505.627 281.805 500.022 292.799ZM497.168 155.258C479.715 145.633 458.934 140.82 434.819 140.82H358.038V367.992H434.819C458.934 367.992 479.715 363.237 497.168 353.716C514.616 344.201 528.049 330.872 537.465 313.737C546.871 296.607 551.58 276.831 551.58 254.409C551.58 231.987 546.871 212.263 537.465 195.232C528.049 178.211 514.616 164.883 497.168 155.258ZM614.611 267.414C615.476 264.445 616.559 261.633 617.892 259.008C621.7 251.503 626.934 245.633 633.595 241.398C640.262 237.169 647.606 235.055 655.647 235.055C661.778 235.055 667.226 236.06 671.986 238.07C676.746 240.081 680.819 242.669 684.205 245.841C687.585 249.013 690.231 252.503 692.137 256.31C694.038 260.117 695.095 263.82 695.309 267.414H614.611ZM699.116 212.206C687.267 204.805 672.674 201.102 655.33 201.102C639.252 201.102 624.976 205.07 612.496 213.003C600.012 220.935 590.179 231.461 582.991 244.57C575.799 257.69 572.2 271.966 572.2 287.404C572.2 303.904 575.851 318.607 583.147 331.508C590.444 344.414 600.491 354.565 613.288 361.966C626.085 369.367 640.627 373.07 656.918 373.07C674.892 373.07 690.017 369.211 702.288 361.487C714.554 353.773 724.496 343.247 732.111 329.919L698.481 313.419C694.674 319.982 689.382 325.43 682.616 329.763C675.845 334.102 667.491 336.268 657.549 336.268C649.09 336.268 641.418 334.315 634.549 330.398C627.674 326.487 622.226 320.773 618.21 313.263C615.647 308.487 613.913 303.034 612.981 296.924H734.335C734.543 295.867 734.757 294.122 734.97 291.69C735.174 289.258 735.283 286.352 735.283 282.961C735.283 267.945 732.215 254.247 726.085 241.872C719.944 229.503 710.96 219.617 699.116 212.206ZM827.168 311.518H824.632L783.705 206.18H736.429L804.96 367.992H846.21L915.377 206.18H868.736L827.168 311.518ZM935.835 367.997H978.668V277.253H1069.73V236.638H978.668V181.43H1079.88V140.82H935.835V367.997ZM1134.82 267.414C1135.69 264.445 1136.77 261.633 1138.11 259.008C1141.91 251.503 1147.15 245.633 1153.81 241.398C1160.48 237.169 1167.82 235.055 1175.86 235.055C1182 235.055 1187.44 236.06 1192.2 238.07C1196.96 240.081 1201.03 242.669 1204.42 245.841C1207.8 249.013 1210.44 252.503 1212.35 256.31C1214.25 260.117 1215.31 263.82 1215.52 267.414H1134.82ZM1219.33 212.206C1207.48 204.805 1192.89 201.102 1175.54 201.102C1159.47 201.102 1145.19 205.07 1132.71 213.003C1120.23 220.935 1110.39 231.461 1103.2 244.57C1096.01 257.69 1092.42 271.966 1092.42 287.404C1092.42 303.904 1096.06 318.607 1103.36 331.508C1110.66 344.414 1120.7 354.565 1133.51 361.966C1146.3 369.367 1160.84 373.07 1177.13 373.07C1195.11 373.07 1210.23 369.211 1222.5 361.487C1234.77 353.773 1244.72 343.247 1252.33 329.919L1218.69 313.419C1214.89 319.982 1209.6 325.43 1202.83 329.763C1196.06 334.102 1187.7 336.268 1177.77 336.268C1169.3 336.268 1161.64 334.315 1154.76 330.398C1147.89 326.487 1142.44 320.773 1138.42 313.263C1135.86 308.487 1134.13 303.034 1133.2 296.924H1254.55C1254.76 295.867 1254.97 294.122 1255.18 291.69C1255.39 289.258 1255.5 286.352 1255.5 282.961C1255.5 267.945 1252.43 254.247 1246.3 241.872C1240.16 229.503 1231.17 219.617 1219.33 212.206ZM1362.65 271.539L1338.85 265.831C1332.92 264.352 1327.85 262.133 1323.62 259.164C1319.39 256.206 1317.27 252.716 1317.27 248.695C1317.27 244.888 1319.39 241.612 1323.62 238.862C1327.85 236.112 1333.56 234.737 1340.76 234.737C1346.89 234.737 1352.65 236.003 1358.05 238.544C1363.44 241.081 1367.82 245.523 1371.22 251.867L1406.75 236.32C1402.94 228.284 1397.87 221.68 1391.52 216.492C1385.17 211.31 1377.66 207.451 1368.99 204.914C1360.31 202.372 1350.59 201.102 1339.8 201.102C1328.17 201.102 1317.54 203.117 1307.91 207.133C1298.29 211.154 1290.67 216.758 1285.07 223.945C1279.47 231.143 1276.66 239.602 1276.66 249.331C1276.66 258.008 1278.83 265.669 1283.17 272.336C1287.5 278.997 1293.16 284.497 1300.14 288.831C1307.12 293.169 1314.52 296.185 1322.35 297.872L1341.39 301.997C1345.83 302.846 1350.16 303.956 1354.4 305.331C1358.63 306.711 1362.17 308.612 1365.03 311.044C1367.88 313.477 1369.31 316.81 1369.31 321.039C1369.31 326.961 1366.56 331.034 1361.06 333.253C1355.56 335.477 1349.42 336.586 1342.66 336.586C1334.41 336.586 1327.22 334.633 1321.08 330.716C1314.94 326.805 1310.08 321.039 1306.49 313.424L1269.37 329.602C1272.32 337.43 1276.87 344.622 1283.01 351.18C1289.14 357.737 1297.13 363.029 1306.97 367.044C1316.8 371.06 1328.7 373.07 1342.66 373.07C1355.35 373.07 1366.88 370.898 1377.24 366.565C1387.61 362.232 1395.85 356.096 1401.99 348.164C1408.12 340.232 1411.19 330.982 1411.19 320.404C1411.19 308.56 1407.12 298.404 1398.98 289.945C1390.83 281.487 1378.72 275.346 1362.65 271.539ZM1523.16 330.081C1520.19 331.034 1517.02 331.508 1513.64 331.508C1506.44 331.508 1501.27 329.659 1498.09 325.956C1494.92 322.258 1493.33 316.492 1493.33 308.664V241.716H1532.99V206.18H1493.33V160.492H1451.77V206.18H1423.53V241.716H1451.77V316.279C1451.77 333.201 1456.53 346.477 1466.05 356.096C1475.56 365.727 1488.68 370.534 1505.39 370.534C1510.47 370.534 1515.38 370.055 1520.14 369.107C1524.9 368.154 1529.61 366.836 1534.26 365.138V324.529C1529.82 327.279 1526.12 329.128 1523.16 330.081Z" fill="#1E1E1E"/>
<path d="M713.725 587.105L693.1 519.898H692.572C692.65 521.5 692.768 523.922 692.924 527.164C693.119 530.367 693.295 533.785 693.451 537.418C693.607 541.051 693.686 544.332 693.686 547.262V587.105H677.455V501.441H702.182L722.455 566.949H722.807L744.311 501.441H769.037V587.105H752.104V546.559C752.104 543.863 752.143 540.758 752.221 537.242C752.338 533.727 752.475 530.387 752.631 527.223C752.787 524.02 752.904 521.617 752.982 520.016H752.455L730.365 587.105H713.725ZM817.288 520.25C826.077 520.25 832.815 522.164 837.503 525.992C842.19 529.82 844.534 535.641 844.534 543.453V587.105H832.054L828.597 578.199H828.128C826.253 580.543 824.339 582.457 822.386 583.941C820.432 585.426 818.186 586.52 815.647 587.223C813.108 587.926 810.022 588.277 806.389 588.277C802.522 588.277 799.046 587.535 795.96 586.051C792.913 584.566 790.511 582.301 788.753 579.254C786.995 576.168 786.116 572.262 786.116 567.535C786.116 560.582 788.557 555.465 793.44 552.184C798.323 548.863 805.647 547.027 815.413 546.676L826.78 546.324V543.453C826.78 540.016 825.882 537.496 824.085 535.895C822.288 534.293 819.788 533.492 816.585 533.492C813.421 533.492 810.315 533.941 807.268 534.84C804.222 535.738 801.175 536.871 798.128 538.238L792.21 526.168C795.686 524.332 799.573 522.887 803.87 521.832C808.206 520.777 812.679 520.25 817.288 520.25ZM826.78 556.754L819.866 556.988C814.085 557.145 810.061 558.18 807.796 560.094C805.569 562.008 804.456 564.527 804.456 567.652C804.456 570.387 805.257 572.34 806.858 573.512C808.46 574.645 810.55 575.211 813.128 575.211C816.956 575.211 820.179 574.078 822.796 571.812C825.452 569.547 826.78 566.324 826.78 562.145V556.754ZM901.398 520.367C908.39 520.367 914.015 522.281 918.273 526.109C922.531 529.898 924.66 535.992 924.66 544.391V587.105H906.789V548.844C906.789 544.156 905.929 540.621 904.211 538.238C902.531 535.855 899.875 534.664 896.242 534.664C890.773 534.664 887.043 536.52 885.05 540.23C883.058 543.941 882.062 549.293 882.062 556.285V587.105H864.191V521.598H877.843L880.246 529.977H881.242C882.648 527.711 884.386 525.875 886.457 524.469C888.566 523.062 890.89 522.027 893.429 521.363C896.007 520.699 898.664 520.367 901.398 520.367ZM971.094 520.25C979.883 520.25 986.622 522.164 991.309 525.992C995.997 529.82 998.34 535.641 998.34 543.453V587.105H985.86L982.403 578.199H981.934C980.059 580.543 978.145 582.457 976.192 583.941C974.239 585.426 971.993 586.52 969.454 587.223C966.914 587.926 963.829 588.277 960.196 588.277C956.329 588.277 952.852 587.535 949.766 586.051C946.719 584.566 944.317 582.301 942.559 579.254C940.801 576.168 939.922 572.262 939.922 567.535C939.922 560.582 942.364 555.465 947.247 552.184C952.129 548.863 959.454 547.027 969.219 546.676L980.586 546.324V543.453C980.586 540.016 979.688 537.496 977.891 535.895C976.094 534.293 973.594 533.492 970.391 533.492C967.227 533.492 964.122 533.941 961.075 534.84C958.028 535.738 954.981 536.871 951.934 538.238L946.016 526.168C949.493 524.332 953.379 522.887 957.676 521.832C962.012 520.777 966.485 520.25 971.094 520.25ZM980.586 556.754L973.672 556.988C967.891 557.145 963.868 558.18 961.602 560.094C959.375 562.008 958.262 564.527 958.262 567.652C958.262 570.387 959.063 572.34 960.664 573.512C962.266 574.645 964.356 575.211 966.934 575.211C970.762 575.211 973.985 574.078 976.602 571.812C979.258 569.547 980.586 566.324 980.586 562.145V556.754ZM1037.16 615.934C1028.02 615.934 1021.02 614.332 1016.18 611.129C1011.38 607.965 1008.97 603.512 1008.97 597.77C1008.97 593.824 1010.2 590.523 1012.67 587.867C1015.13 585.211 1018.74 583.316 1023.51 582.184C1021.67 581.402 1020.07 580.133 1018.7 578.375C1017.33 576.578 1016.65 574.684 1016.65 572.691C1016.65 570.191 1017.37 568.121 1018.82 566.48C1020.26 564.801 1022.35 563.16 1025.09 561.559C1021.65 560.074 1018.92 557.691 1016.88 554.41C1014.89 551.129 1013.9 547.262 1013.9 542.809C1013.9 538.043 1014.93 534 1017 530.68C1019.11 527.32 1022.16 524.762 1026.14 523.004C1030.17 521.246 1035.05 520.367 1040.79 520.367C1042 520.367 1043.41 520.445 1045.01 520.602C1046.61 520.758 1048.08 520.934 1049.4 521.129C1050.77 521.324 1051.69 521.48 1052.16 521.598H1075.01V530.68L1064.76 533.316C1065.69 534.762 1066.4 536.305 1066.86 537.945C1067.33 539.586 1067.57 541.324 1067.57 543.16C1067.57 550.191 1065.11 555.68 1060.18 559.625C1055.3 563.531 1048.51 565.484 1039.79 565.484C1037.72 565.367 1035.77 565.211 1033.93 565.016C1033.04 565.719 1032.35 566.461 1031.88 567.242C1031.42 568.023 1031.18 568.844 1031.18 569.703C1031.18 570.562 1031.53 571.285 1032.24 571.871C1032.98 572.418 1034.07 572.848 1035.52 573.16C1037 573.434 1038.84 573.57 1041.02 573.57H1052.16C1059.34 573.57 1064.81 575.113 1068.56 578.199C1072.35 581.285 1074.25 585.816 1074.25 591.793C1074.25 599.449 1071.04 605.387 1064.64 609.605C1058.27 613.824 1049.11 615.934 1037.16 615.934ZM1037.92 604.273C1042.18 604.273 1045.83 603.863 1048.88 603.043C1051.96 602.262 1054.33 601.129 1055.97 599.645C1057.61 598.199 1058.43 596.461 1058.43 594.43C1058.43 592.789 1057.94 591.48 1056.96 590.504C1056.02 589.566 1054.58 588.902 1052.63 588.512C1050.71 588.121 1048.25 587.926 1045.24 587.926H1035.99C1033.8 587.926 1031.83 588.277 1030.07 588.98C1028.35 589.684 1026.98 590.66 1025.97 591.91C1024.95 593.199 1024.44 594.684 1024.44 596.363C1024.44 598.824 1025.61 600.758 1027.96 602.164C1030.34 603.57 1033.66 604.273 1037.92 604.273ZM1040.79 554.586C1044.15 554.586 1046.61 553.551 1048.17 551.48C1049.74 549.41 1050.52 546.598 1050.52 543.043C1050.52 539.098 1049.7 536.148 1048.06 534.195C1046.45 532.203 1044.03 531.207 1040.79 531.207C1037.51 531.207 1035.05 532.203 1033.41 534.195C1031.77 536.148 1030.95 539.098 1030.95 543.043C1030.95 546.598 1031.75 549.41 1033.35 551.48C1034.99 553.551 1037.47 554.586 1040.79 554.586ZM1147.17 521.598V587.105H1133.46L1131.05 578.727H1130.12C1128.71 580.953 1126.95 582.77 1124.84 584.176C1122.73 585.582 1120.41 586.617 1117.87 587.281C1115.33 587.945 1112.69 588.277 1109.96 588.277C1105.27 588.277 1101.19 587.457 1097.71 585.816C1094.24 584.137 1091.52 581.539 1089.57 578.023C1087.65 574.508 1086.7 569.938 1086.7 564.312V521.598H1104.57V559.859C1104.57 564.547 1105.41 568.082 1107.09 570.465C1108.77 572.848 1111.44 574.039 1115.12 574.039C1118.75 574.039 1121.6 573.219 1123.67 571.578C1125.74 569.898 1127.19 567.457 1128.01 564.254C1128.87 561.012 1129.29 557.066 1129.29 552.418V521.598H1147.17ZM1193.95 520.25C1202.74 520.25 1209.48 522.164 1214.17 525.992C1218.85 529.82 1221.2 535.641 1221.2 543.453V587.105H1208.72L1205.26 578.199H1204.79C1202.92 580.543 1201 582.457 1199.05 583.941C1197.1 585.426 1194.85 586.52 1192.31 587.223C1189.77 587.926 1186.69 588.277 1183.05 588.277C1179.19 588.277 1175.71 587.535 1172.62 586.051C1169.58 584.566 1167.17 582.301 1165.42 579.254C1163.66 576.168 1162.78 572.262 1162.78 567.535C1162.78 560.582 1165.22 555.465 1170.1 552.184C1174.99 548.863 1182.31 547.027 1192.08 546.676L1203.44 546.324V543.453C1203.44 540.016 1202.55 537.496 1200.75 535.895C1198.95 534.293 1196.45 533.492 1193.25 533.492C1190.08 533.492 1186.98 533.941 1183.93 534.84C1180.89 535.738 1177.84 536.871 1174.79 538.238L1168.87 526.168C1172.35 524.332 1176.24 522.887 1180.53 521.832C1184.87 520.777 1189.34 520.25 1193.95 520.25ZM1203.44 556.754L1196.53 556.988C1190.75 557.145 1186.73 558.18 1184.46 560.094C1182.23 562.008 1181.12 564.527 1181.12 567.652C1181.12 570.387 1181.92 572.34 1183.52 573.512C1185.12 574.645 1187.21 575.211 1189.79 575.211C1193.62 575.211 1196.84 574.078 1199.46 571.812C1202.12 569.547 1203.44 566.324 1203.44 562.145V556.754Z" fill="#1E1C1B"/>
</svg>
